<svg width="24" height="24" viewBox="0 0 24 24" fill="none" xmlns="http://www.w3.org/2000/svg">
<path d="M14.5299 9.47065L9.46992 14.5307C8.81992 13.8807 8.41992 12.9907 8.41992 12.0007C8.41992 10.0207 10.0199 8.42065 11.9999 8.42065C12.9899 8.42065 13.8799 8.82065 14.5299 9.47065Z" stroke="#292D32" stroke-width="1.5" stroke-linecap="round" stroke-linejoin="round"/>
<path d="M17.8201 5.77071C16.0701 4.45071 14.0701 3.73071 12.0001 3.73071C8.47009 3.73071 5.18009 5.81071 2.89009 9.41071C1.99009 10.8207 1.99009 13.1907 2.89009 14.6007C3.68009 15.8407 4.60009 16.9107 5.60009 17.7707" stroke="#292D32" stroke-width="1.5" stroke-linecap="round" stroke-linejoin="round"/>
<path d="M8.41992 19.5307C9.55992 20.0107 10.7699 20.2707 11.9999 20.2707C15.5299 20.2707 18.8199 18.1907 21.1099 14.5907C22.0099 13.1807 22.0099 10.8107 21.1099 9.40066C20.7799 8.88066 20.4199 8.39066 20.0499 7.93066" stroke="#292D32" stroke-width="1.5" stroke-linecap="round" stroke-linejoin="round"/>
<path d="M15.5099 12.7007C15.2499 14.1107 14.0999 15.2607 12.6899 15.5207" stroke="#292D32" stroke-width="1.5" stroke-linecap="round" stroke-linejoin="round"/>
<path d="M9.47 14.5308L2 22.0008" stroke="#292D32" stroke-width="1.5" stroke-linecap="round" stroke-linejoin="round"/>
<path d="M22 2.00073L14.53 9.47073" stroke="#292D32" stroke-width="1.5" stroke-linecap="round" stroke-linejoin="round"/>
</svg>
