<svg width="24" height="24" viewBox="0 0 24 24" fill="none" xmlns="http://www.w3.org/2000/svg">
<path d="M20.2499 9.60156C21.0067 10.0374 21.6204 10.684 22.016 11.4626C22.4117 12.2412 22.5722 13.118 22.4781 13.9863C22.3839 14.8546 22.0392 15.6766 21.4859 16.3523C20.9325 17.028 20.1945 17.5281 19.3619 17.7916C19.0676 19.127 18.3261 20.322 17.26 21.1785C16.194 22.035 14.8674 22.5018 13.4999 22.5016H11.2499C11.051 22.5016 10.8602 22.4225 10.7196 22.2819C10.5789 22.1412 10.4999 21.9505 10.4999 21.7516C10.4999 21.5527 10.5789 21.3619 10.7196 21.2212C10.8602 21.0806 11.051 21.0016 11.2499 21.0016H13.4999C14.4308 21.0018 15.3389 20.7135 16.0992 20.1762C16.8594 19.6389 17.4344 18.8792 17.7449 18.0016H17.2499C17.051 18.0016 16.8602 17.9225 16.7196 17.7819C16.5789 17.6412 16.4999 17.4505 16.4999 17.2516V9.75156C16.4999 9.55265 16.5789 9.36189 16.7196 9.22123C16.8602 9.08058 17.051 9.00156 17.2499 9.00156H17.9999C18.2429 9.00156 18.4814 9.02106 18.7154 9.05856C18.5465 7.3949 17.7662 5.85314 16.5255 4.732C15.2848 3.61085 13.6721 2.99015 11.9999 2.99015C10.3277 2.99015 8.71499 3.61085 7.4743 4.732C6.23361 5.85314 5.45324 7.3949 5.28439 9.05856C5.521 9.02064 5.76025 9.00158 5.99989 9.00156H6.74989C6.9488 9.00156 7.13956 9.08058 7.28022 9.22123C7.42087 9.36189 7.49988 9.55265 7.49988 9.75156V17.2516C7.49988 17.4505 7.42087 17.6412 7.28022 17.7819C7.13956 17.9225 6.9488 18.0016 6.74989 18.0016H5.99989C5.00836 18.0027 4.04422 17.6763 3.25728 17.0731C2.47034 16.4699 1.90465 15.6236 1.64811 14.6659C1.39156 13.7081 1.45853 12.6924 1.8386 11.7766C2.21867 10.8608 2.89056 10.0962 3.74989 9.60156C3.74989 7.41353 4.61908 5.31511 6.16625 3.76793C7.71343 2.22076 9.81185 1.35156 11.9999 1.35156C14.1879 1.35156 16.2863 2.22076 17.8335 3.76793C19.3807 5.31511 20.2499 7.41353 20.2499 9.60156ZM5.99989 10.5016C5.20424 10.5016 4.44117 10.8176 3.87856 11.3802C3.31596 11.9429 2.99989 12.7059 2.99989 13.5016C2.99989 14.2972 3.31596 15.0603 3.87856 15.6229C4.44117 16.1855 5.20424 16.5016 5.99989 16.5016V10.5016ZM20.9999 13.5016C20.9999 12.7059 20.6838 11.9429 20.1212 11.3802C19.5586 10.8176 18.7955 10.5016 17.9999 10.5016V16.5016C18.7955 16.5016 19.5586 16.1855 20.1212 15.6229C20.6838 15.0603 20.9999 14.2972 20.9999 13.5016Z" fill="white"/>
</svg>
